<svg xmlns="http://www.w3.org/2000/svg" xmlns:xlink="http://www.w3.org/1999/xlink" viewBox="0 0 66 65" fill="#fff" fill-rule="evenodd" stroke="#000" stroke-linecap="round" stroke-linejoin="round"><use xlink:href="#A" x=".5" y=".5"/><symbol id="A" overflow="visible"><g stroke="none" fill-rule="nonzero"><path d="M0 2.91C0 1.298 1.298 0 2.91 0H61.09C62.703 0 64 1.298 64 2.91V61.09c0 1.612-1.297 2.91-2.91 2.91H2.91C1.298 64 0 62.703 0 61.09z" fill="#015249"/><g fill="#878b91"><use xlink:href="#C"/><use xlink:href="#C" x="11.635" y="-11.637"/><use xlink:href="#C" y="-11.637"/><use xlink:href="#C" x="-11.637" y="-11.637"/><use xlink:href="#C" x="-23.274" y="-11.637"/><use xlink:href="#C" x="-23.274"/></g><path d="M14.545 34.91a2.91 2.91 0 0 0-2.909 2.909v11.636a2.91 2.91 0 0 0 2.909 2.909 2.91 2.91 0 0 0 2.909-2.909V37.818a2.91 2.91 0 0 0-2.909-2.909zm23.273 0a2.91 2.91 0 0 0-2.909 2.909v11.636a2.91 2.91 0 0 0 2.909 2.909 2.91 2.91 0 0 0 2.909-2.909V37.818a2.91 2.91 0 0 0-2.909-2.909zM26.18 23.273a2.91 2.91 0 0 0-2.909 2.909v23.273a2.91 2.91 0 0 0 2.909 2.909 2.91 2.91 0 0 0 2.909-2.909V26.182a2.91 2.91 0 0 0-2.909-2.909zm23.273 0a2.91 2.91 0 0 0-2.909 2.909v23.273a2.91 2.91 0 0 0 2.909 2.909 2.91 2.91 0 0 0 2.909-2.909V26.182a2.91 2.91 0 0 0-2.909-2.909z"/></g></symbol><defs ><path id="C" d="M34.91 26.182c0-1.612 1.297-2.91 2.91-2.91s2.91 1.297 2.91 2.91-1.297 2.91-2.91 2.91-2.91-1.297-2.91-2.91z"/></defs></svg>